G04 #@! TF.GenerationSoftware,KiCad,Pcbnew,8.0.5*
G04 #@! TF.CreationDate,2024-09-15T00:24:01-05:00*
G04 #@! TF.ProjectId,Lab1APCB,4c616231-4150-4434-922e-6b696361645f,rev?*
G04 #@! TF.SameCoordinates,Original*
G04 #@! TF.FileFunction,Copper,L2,Bot*
G04 #@! TF.FilePolarity,Positive*
%FSLAX46Y46*%
G04 Gerber Fmt 4.6, Leading zero omitted, Abs format (unit mm)*
G04 Created by KiCad (PCBNEW 8.0.5) date 2024-09-15 00:24:01*
%MOMM*%
%LPD*%
G01*
G04 APERTURE LIST*
G04 Aperture macros list*
%AMRoundRect*
0 Rectangle with rounded corners*
0 $1 Rounding radius*
0 $2 $3 $4 $5 $6 $7 $8 $9 X,Y pos of 4 corners*
0 Add a 4 corners polygon primitive as box body*
4,1,4,$2,$3,$4,$5,$6,$7,$8,$9,$2,$3,0*
0 Add four circle primitives for the rounded corners*
1,1,$1+$1,$2,$3*
1,1,$1+$1,$4,$5*
1,1,$1+$1,$6,$7*
1,1,$1+$1,$8,$9*
0 Add four rect primitives between the rounded corners*
20,1,$1+$1,$2,$3,$4,$5,0*
20,1,$1+$1,$4,$5,$6,$7,0*
20,1,$1+$1,$6,$7,$8,$9,0*
20,1,$1+$1,$8,$9,$2,$3,0*%
G04 Aperture macros list end*
G04 #@! TA.AperFunction,ComponentPad*
%ADD10C,2.175000*%
G04 #@! TD*
G04 #@! TA.AperFunction,ComponentPad*
%ADD11RoundRect,0.249700X-0.450300X-0.300300X0.450300X-0.300300X0.450300X0.300300X-0.450300X0.300300X0*%
G04 #@! TD*
G04 #@! TA.AperFunction,ComponentPad*
%ADD12O,1.400000X1.100000*%
G04 #@! TD*
G04 #@! TA.AperFunction,ComponentPad*
%ADD13C,1.400000*%
G04 #@! TD*
G04 #@! TA.AperFunction,ComponentPad*
%ADD14R,1.600000X1.600000*%
G04 #@! TD*
G04 #@! TA.AperFunction,ComponentPad*
%ADD15O,1.600000X1.600000*%
G04 #@! TD*
G04 #@! TA.AperFunction,ComponentPad*
%ADD16R,1.700000X1.700000*%
G04 #@! TD*
G04 #@! TA.AperFunction,ComponentPad*
%ADD17O,1.700000X1.700000*%
G04 #@! TD*
G04 #@! TA.AperFunction,Conductor*
%ADD18C,0.200000*%
G04 #@! TD*
G04 APERTURE END LIST*
D10*
X19390000Y-80565000D03*
X91610000Y-61435000D03*
X91610000Y-80565000D03*
X19390000Y-61435000D03*
D11*
X133115000Y-57030000D03*
D12*
X133115000Y-59030000D03*
X133115000Y-61030000D03*
D13*
X143415000Y-60300000D03*
X143415000Y-57760000D03*
D14*
X121100000Y-57175000D03*
D15*
X121100000Y-59715000D03*
X121100000Y-62255000D03*
X121100000Y-64795000D03*
X121100000Y-67335000D03*
X121100000Y-69875000D03*
X121100000Y-72415000D03*
X121100000Y-74955000D03*
X121100000Y-77495000D03*
X121100000Y-80035000D03*
X121100000Y-82575000D03*
X121100000Y-85115000D03*
X121100000Y-87655000D03*
X121100000Y-90195000D03*
X128720000Y-90195000D03*
X128720000Y-87655000D03*
X128720000Y-85115000D03*
X128720000Y-82575000D03*
X128720000Y-80035000D03*
X128720000Y-77495000D03*
X128720000Y-74955000D03*
X128720000Y-72415000D03*
X128720000Y-69875000D03*
X128720000Y-67335000D03*
X128720000Y-64795000D03*
X128720000Y-62255000D03*
X128720000Y-59715000D03*
X128720000Y-57175000D03*
D16*
X108370000Y-48770000D03*
D17*
X108370000Y-46230000D03*
X110910000Y-48770000D03*
X110910000Y-46230000D03*
X113450000Y-48770000D03*
X113450000Y-46230000D03*
X115990000Y-48770000D03*
X115990000Y-46230000D03*
X118530000Y-48770000D03*
X118530000Y-46230000D03*
X121070000Y-48770000D03*
X121070000Y-46230000D03*
X123610000Y-48770000D03*
X123610000Y-46230000D03*
X126150000Y-48770000D03*
X126150000Y-46230000D03*
X128690000Y-48770000D03*
X128690000Y-46230000D03*
X131230000Y-48770000D03*
X131230000Y-46230000D03*
X133770000Y-48770000D03*
X133770000Y-46230000D03*
X136310000Y-48770000D03*
X136310000Y-46230000D03*
X138850000Y-48770000D03*
X138850000Y-46230000D03*
X141390000Y-48770000D03*
X141390000Y-46230000D03*
X143930000Y-48770000D03*
X143930000Y-46230000D03*
X146470000Y-48770000D03*
X146470000Y-46230000D03*
X149010000Y-48770000D03*
X149010000Y-46230000D03*
X151550000Y-48770000D03*
X151550000Y-46230000D03*
X154090000Y-48770000D03*
X154090000Y-46230000D03*
X156630000Y-48770000D03*
X156630000Y-46230000D03*
D18*
X143930000Y-46230000D02*
X142778000Y-46230000D01*
X133115000Y-67146600D02*
X133115000Y-61030000D01*
X146004000Y-47420600D02*
X145082000Y-46498500D01*
X133618000Y-58178300D02*
X133115000Y-58178300D01*
X140002000Y-48770000D02*
X138850000Y-48770000D01*
X121070000Y-47381700D02*
X120802000Y-47381700D01*
X141915000Y-47381700D02*
X141122000Y-47381700D01*
X128948000Y-71313300D02*
X133115000Y-67146600D01*
X128720000Y-72415000D02*
X128720000Y-71313300D01*
X138850000Y-52946300D02*
X133618000Y-58178300D01*
X138850000Y-48770000D02*
X138850000Y-52946300D01*
X155478000Y-48482000D02*
X154615000Y-47618300D01*
X128720000Y-71313300D02*
X128948000Y-71313300D01*
X145082000Y-46230000D02*
X143930000Y-46230000D01*
X155478000Y-48770000D02*
X155478000Y-48482000D01*
X119682000Y-48770000D02*
X118530000Y-48770000D01*
X147858000Y-46230000D02*
X147858000Y-46517900D01*
X150162000Y-46230000D02*
X149010000Y-46230000D01*
X146956000Y-47420600D02*
X146004000Y-47420600D01*
X156630000Y-48770000D02*
X155478000Y-48770000D01*
X140002000Y-48501500D02*
X140002000Y-48770000D01*
X154615000Y-47618300D02*
X151282000Y-47618300D01*
X128720000Y-80035000D02*
X128720000Y-82575000D01*
X119682000Y-48501500D02*
X119682000Y-48770000D01*
X151282000Y-47618300D02*
X150162000Y-46498500D01*
X145082000Y-46498500D02*
X145082000Y-46230000D01*
X142778000Y-46230000D02*
X142778000Y-46518000D01*
X133115000Y-58178300D02*
X133115000Y-59030000D01*
X120802000Y-47381700D02*
X119682000Y-48501500D01*
X147858000Y-46517900D02*
X146956000Y-47420600D01*
X150162000Y-46498500D02*
X150162000Y-46230000D01*
X121070000Y-46230000D02*
X121070000Y-47381700D01*
X141122000Y-47381700D02*
X140002000Y-48501500D01*
X142778000Y-46518000D02*
X141915000Y-47381700D01*
X133115000Y-59030000D02*
X133115000Y-61030000D01*
X149010000Y-46230000D02*
X147858000Y-46230000D01*
X128720000Y-61153300D02*
X128720000Y-62255000D01*
X129823000Y-51328500D02*
X129823000Y-60223000D01*
X129823000Y-60223000D02*
X128893000Y-61153300D01*
X131230000Y-48770000D02*
X131230000Y-49921700D01*
X128893000Y-61153300D02*
X128720000Y-61153300D01*
X131230000Y-49921700D02*
X129823000Y-51328500D01*
X133770000Y-48770000D02*
X133770000Y-51102800D01*
X128946000Y-66233300D02*
X128720000Y-66233300D01*
X128720000Y-66233300D02*
X128720000Y-67335000D01*
X130798000Y-64381200D02*
X128946000Y-66233300D01*
X133770000Y-51102800D02*
X130798000Y-54075200D01*
X130798000Y-54075200D02*
X130798000Y-64381200D01*
X128720000Y-68773300D02*
X128720000Y-69875000D01*
X129960000Y-49217600D02*
X127615000Y-51562200D01*
X130963000Y-47381700D02*
X129960000Y-48384600D01*
X128492000Y-68773300D02*
X128720000Y-68773300D01*
X132618000Y-46518000D02*
X131755000Y-47381700D01*
X127615000Y-67897000D02*
X128492000Y-68773300D01*
X127615000Y-51562200D02*
X127615000Y-67897000D01*
X129960000Y-48384600D02*
X129960000Y-49217600D01*
X133770000Y-46230000D02*
X132618000Y-46230000D01*
X131755000Y-47381700D02*
X130963000Y-47381700D01*
X132618000Y-46230000D02*
X132618000Y-46518000D01*
X132441000Y-51722000D02*
X130249000Y-53914300D01*
X134289000Y-47613000D02*
X133239000Y-47613000D01*
X128720000Y-63693300D02*
X128720000Y-64795000D01*
X128948000Y-63693300D02*
X128720000Y-63693300D01*
X135158000Y-48482100D02*
X134289000Y-47613000D01*
X135158000Y-48770000D02*
X135158000Y-48482100D01*
X136310000Y-48770000D02*
X135158000Y-48770000D01*
X133239000Y-47613000D02*
X132441000Y-48410200D01*
X130249000Y-53914300D02*
X130249000Y-62392500D01*
X130249000Y-62392500D02*
X128948000Y-63693300D01*
X132441000Y-48410200D02*
X132441000Y-51722000D01*
X108370000Y-48770000D02*
X109522000Y-48770000D01*
X126674000Y-72036100D02*
X128492000Y-73853300D01*
X126674000Y-49921700D02*
X126674000Y-72036100D01*
X110385000Y-49921700D02*
X126674000Y-49921700D01*
X127538000Y-48770000D02*
X127538000Y-49057900D01*
X128720000Y-73853300D02*
X128720000Y-74955000D01*
X109522000Y-48770000D02*
X109522000Y-49058000D01*
X127538000Y-49057900D02*
X126674000Y-49921700D01*
X109522000Y-49058000D02*
X110385000Y-49921700D01*
X128492000Y-73853300D02*
X128720000Y-73853300D01*
X128690000Y-48770000D02*
X127538000Y-48770000D01*
M02*
