M48
; DRILL file {KiCad 8.0.5} date 2024-09-15T00:24:02-0500
; FORMAT={-:-/ absolute / inch / decimal}
; #@! TF.CreationDate,2024-09-15T00:24:02-05:00
; #@! TF.GenerationSoftware,Kicad,Pcbnew,8.0.5
; #@! TF.FileFunction,Plated,1,2,PTH
FMAT,2
INCH
; #@! TA.AperFunction,Plated,PTH,ComponentDrill
T1C0.0276
; #@! TA.AperFunction,Plated,PTH,ComponentDrill
T2C0.0315
; #@! TA.AperFunction,Plated,PTH,ComponentDrill
T3C0.0394
; #@! TA.AperFunction,Plated,PTH,ComponentDrill
T4C0.0571
%
G90
G05
T1
X5.2407Y-2.2453
X5.2407Y-2.324
X5.2407Y-2.4028
X5.6463Y-2.274
X5.6463Y-2.374
T2
X4.7677Y-2.251
X4.7677Y-2.351
X4.7677Y-2.451
X4.7677Y-2.551
X4.7677Y-2.651
X4.7677Y-2.751
X4.7677Y-2.851
X4.7677Y-2.951
X4.7677Y-3.051
X4.7677Y-3.151
X4.7677Y-3.251
X4.7677Y-3.351
X4.7677Y-3.451
X4.7677Y-3.551
X5.0677Y-2.251
X5.0677Y-2.351
X5.0677Y-2.451
X5.0677Y-2.551
X5.0677Y-2.651
X5.0677Y-2.751
X5.0677Y-2.851
X5.0677Y-2.951
X5.0677Y-3.051
X5.0677Y-3.151
X5.0677Y-3.251
X5.0677Y-3.351
X5.0677Y-3.451
X5.0677Y-3.551
T3
X4.2665Y-1.8201
X4.2665Y-1.9201
X4.3665Y-1.8201
X4.3665Y-1.9201
X4.4665Y-1.8201
X4.4665Y-1.9201
X4.5665Y-1.8201
X4.5665Y-1.9201
X4.6665Y-1.8201
X4.6665Y-1.9201
X4.7665Y-1.8201
X4.7665Y-1.9201
X4.8665Y-1.8201
X4.8665Y-1.9201
X4.9665Y-1.8201
X4.9665Y-1.9201
X5.0665Y-1.8201
X5.0665Y-1.9201
X5.1665Y-1.8201
X5.1665Y-1.9201
X5.2665Y-1.8201
X5.2665Y-1.9201
X5.3665Y-1.8201
X5.3665Y-1.9201
X5.4665Y-1.8201
X5.4665Y-1.9201
X5.5665Y-1.8201
X5.5665Y-1.9201
X5.6665Y-1.8201
X5.6665Y-1.9201
X5.7665Y-1.8201
X5.7665Y-1.9201
X5.8665Y-1.8201
X5.8665Y-1.9201
X5.9665Y-1.8201
X5.9665Y-1.9201
X6.0665Y-1.8201
X6.0665Y-1.9201
X6.1665Y-1.8201
X6.1665Y-1.9201
T4
X0.7634Y-2.4187
X0.7634Y-3.1719
X3.6067Y-2.4187
X3.6067Y-3.1719
M30
