G04 #@! TF.GenerationSoftware,KiCad,Pcbnew,8.0.5*
G04 #@! TF.CreationDate,2024-09-15T00:24:01-05:00*
G04 #@! TF.ProjectId,Lab1APCB,4c616231-4150-4434-922e-6b696361645f,rev?*
G04 #@! TF.SameCoordinates,Original*
G04 #@! TF.FileFunction,Soldermask,Bot*
G04 #@! TF.FilePolarity,Negative*
%FSLAX46Y46*%
G04 Gerber Fmt 4.6, Leading zero omitted, Abs format (unit mm)*
G04 Created by KiCad (PCBNEW 8.0.5) date 2024-09-15 00:24:01*
%MOMM*%
%LPD*%
G01*
G04 APERTURE LIST*
G04 Aperture macros list*
%AMRoundRect*
0 Rectangle with rounded corners*
0 $1 Rounding radius*
0 $2 $3 $4 $5 $6 $7 $8 $9 X,Y pos of 4 corners*
0 Add a 4 corners polygon primitive as box body*
4,1,4,$2,$3,$4,$5,$6,$7,$8,$9,$2,$3,0*
0 Add four circle primitives for the rounded corners*
1,1,$1+$1,$2,$3*
1,1,$1+$1,$4,$5*
1,1,$1+$1,$6,$7*
1,1,$1+$1,$8,$9*
0 Add four rect primitives between the rounded corners*
20,1,$1+$1,$2,$3,$4,$5,0*
20,1,$1+$1,$4,$5,$6,$7,0*
20,1,$1+$1,$6,$7,$8,$9,0*
20,1,$1+$1,$8,$9,$2,$3,0*%
G04 Aperture macros list end*
%ADD10C,2.700000*%
%ADD11C,3.310000*%
%ADD12C,3.680000*%
%ADD13C,2.510000*%
%ADD14C,2.379000*%
%ADD15C,0.800000*%
%ADD16RoundRect,0.249700X-0.450300X-0.300300X0.450300X-0.300300X0.450300X0.300300X-0.450300X0.300300X0*%
%ADD17O,1.400000X1.100000*%
%ADD18C,1.400000*%
%ADD19R,1.600000X1.600000*%
%ADD20O,1.600000X1.600000*%
%ADD21R,1.700000X1.700000*%
%ADD22O,1.700000X1.700000*%
G04 APERTURE END LIST*
D10*
X161500000Y-47500000D03*
D11*
X82810000Y-71015000D03*
D12*
X82810000Y-53500000D03*
X27610000Y-88500000D03*
D11*
X27610000Y-71015000D03*
D13*
X19390000Y-53500000D03*
D14*
X19390000Y-80565000D03*
X91610000Y-61435000D03*
X91610000Y-80565000D03*
X19390000Y-61435000D03*
D10*
X103500000Y-96500000D03*
X103500000Y-47500000D03*
D15*
X131665000Y-61630000D03*
X140625000Y-56430000D03*
D16*
X133115000Y-57030000D03*
D17*
X133115000Y-59030000D03*
X133115000Y-61030000D03*
D18*
X143415000Y-60300000D03*
X143415000Y-57760000D03*
D10*
X161500000Y-96500000D03*
D19*
X121100000Y-57175000D03*
D20*
X121100000Y-59715000D03*
X121100000Y-62255000D03*
X121100000Y-64795000D03*
X121100000Y-67335000D03*
X121100000Y-69875000D03*
X121100000Y-72415000D03*
X121100000Y-74955000D03*
X121100000Y-77495000D03*
X121100000Y-80035000D03*
X121100000Y-82575000D03*
X121100000Y-85115000D03*
X121100000Y-87655000D03*
X121100000Y-90195000D03*
X128720000Y-90195000D03*
X128720000Y-87655000D03*
X128720000Y-85115000D03*
X128720000Y-82575000D03*
X128720000Y-80035000D03*
X128720000Y-77495000D03*
X128720000Y-74955000D03*
X128720000Y-72415000D03*
X128720000Y-69875000D03*
X128720000Y-67335000D03*
X128720000Y-64795000D03*
X128720000Y-62255000D03*
X128720000Y-59715000D03*
X128720000Y-57175000D03*
D21*
X108370000Y-48770000D03*
D22*
X108370000Y-46230000D03*
X110910000Y-48770000D03*
X110910000Y-46230000D03*
X113450000Y-48770000D03*
X113450000Y-46230000D03*
X115990000Y-48770000D03*
X115990000Y-46230000D03*
X118530000Y-48770000D03*
X118530000Y-46230000D03*
X121070000Y-48770000D03*
X121070000Y-46230000D03*
X123610000Y-48770000D03*
X123610000Y-46230000D03*
X126150000Y-48770000D03*
X126150000Y-46230000D03*
X128690000Y-48770000D03*
X128690000Y-46230000D03*
X131230000Y-48770000D03*
X131230000Y-46230000D03*
X133770000Y-48770000D03*
X133770000Y-46230000D03*
X136310000Y-48770000D03*
X136310000Y-46230000D03*
X138850000Y-48770000D03*
X138850000Y-46230000D03*
X141390000Y-48770000D03*
X141390000Y-46230000D03*
X143930000Y-48770000D03*
X143930000Y-46230000D03*
X146470000Y-48770000D03*
X146470000Y-46230000D03*
X149010000Y-48770000D03*
X149010000Y-46230000D03*
X151550000Y-48770000D03*
X151550000Y-46230000D03*
X154090000Y-48770000D03*
X154090000Y-46230000D03*
X156630000Y-48770000D03*
X156630000Y-46230000D03*
M02*
