G04 #@! TF.GenerationSoftware,KiCad,Pcbnew,8.0.5*
G04 #@! TF.CreationDate,2024-09-15T00:24:01-05:00*
G04 #@! TF.ProjectId,Lab1APCB,4c616231-4150-4434-922e-6b696361645f,rev?*
G04 #@! TF.SameCoordinates,Original*
G04 #@! TF.FileFunction,Profile,NP*
%FSLAX46Y46*%
G04 Gerber Fmt 4.6, Leading zero omitted, Abs format (unit mm)*
G04 Created by KiCad (PCBNEW 8.0.5) date 2024-09-15 00:24:01*
%MOMM*%
%LPD*%
G01*
G04 APERTURE LIST*
G04 #@! TA.AperFunction,Profile*
%ADD10C,0.100000*%
G04 #@! TD*
G04 APERTURE END LIST*
D10*
X100500000Y-63500000D02*
G75*
G02*
X100000000Y-63000000I0J500000D01*
G01*
X162000000Y-44000000D02*
G75*
G02*
X165000000Y-47000000I0J-3000000D01*
G01*
X165000000Y-97000000D02*
X165000000Y-47000000D01*
X100000000Y-47000000D02*
X100000000Y-63000000D01*
X146000000Y-81000000D02*
X146000000Y-96000000D01*
X144000000Y-96000000D02*
X144000000Y-81000000D01*
X103000000Y-100000000D02*
G75*
G02*
X100000000Y-97000000I0J3000000D01*
G01*
X103000000Y-100000000D02*
X162000000Y-100000000D01*
X104500000Y-80500000D02*
X100500000Y-80500000D01*
X144000000Y-81000000D02*
G75*
G02*
X146000000Y-81000000I1000000J0D01*
G01*
X100000000Y-81000000D02*
G75*
G02*
X100499127Y-80500001I500000J0D01*
G01*
X165000000Y-97000000D02*
G75*
G02*
X162000000Y-100000000I-3000000J0D01*
G01*
X105000000Y-64000000D02*
X105000000Y-80000000D01*
X100000000Y-47000000D02*
G75*
G02*
X103000000Y-44000000I3000000J0D01*
G01*
X146000000Y-96000000D02*
G75*
G02*
X144000000Y-96000000I-1000000J0D01*
G01*
X100000000Y-81000000D02*
X100000000Y-97000000D01*
X100500000Y-63500000D02*
X104500000Y-63500000D01*
X105000000Y-80000000D02*
G75*
G02*
X104500000Y-80500000I-500000J0D01*
G01*
X104500000Y-63500000D02*
G75*
G02*
X105000000Y-64000000I0J-500000D01*
G01*
X162000000Y-44000000D02*
X103000000Y-44000000D01*
M02*
