G04 #@! TF.GenerationSoftware,KiCad,Pcbnew,8.0.5*
G04 #@! TF.CreationDate,2024-09-15T00:24:01-05:00*
G04 #@! TF.ProjectId,Lab1APCB,4c616231-4150-4434-922e-6b696361645f,rev?*
G04 #@! TF.SameCoordinates,Original*
G04 #@! TF.FileFunction,Legend,Top*
G04 #@! TF.FilePolarity,Positive*
%FSLAX46Y46*%
G04 Gerber Fmt 4.6, Leading zero omitted, Abs format (unit mm)*
G04 Created by KiCad (PCBNEW 8.0.5) date 2024-09-15 00:24:01*
%MOMM*%
%LPD*%
G01*
G04 APERTURE LIST*
%ADD10C,0.150000*%
%ADD11C,0.127000*%
%ADD12C,0.120000*%
G04 APERTURE END LIST*
D10*
X89639285Y-91886009D02*
X89782142Y-91933628D01*
X89782142Y-91933628D02*
X89829761Y-91981247D01*
X89829761Y-91981247D02*
X89877380Y-92076485D01*
X89877380Y-92076485D02*
X89877380Y-92219342D01*
X89877380Y-92219342D02*
X89829761Y-92314580D01*
X89829761Y-92314580D02*
X89782142Y-92362200D01*
X89782142Y-92362200D02*
X89686904Y-92409819D01*
X89686904Y-92409819D02*
X89305952Y-92409819D01*
X89305952Y-92409819D02*
X89305952Y-91409819D01*
X89305952Y-91409819D02*
X89639285Y-91409819D01*
X89639285Y-91409819D02*
X89734523Y-91457438D01*
X89734523Y-91457438D02*
X89782142Y-91505057D01*
X89782142Y-91505057D02*
X89829761Y-91600295D01*
X89829761Y-91600295D02*
X89829761Y-91695533D01*
X89829761Y-91695533D02*
X89782142Y-91790771D01*
X89782142Y-91790771D02*
X89734523Y-91838390D01*
X89734523Y-91838390D02*
X89639285Y-91886009D01*
X89639285Y-91886009D02*
X89305952Y-91886009D01*
X90163095Y-91409819D02*
X90734523Y-91409819D01*
X90448809Y-92409819D02*
X90448809Y-91409819D01*
X91591666Y-92409819D02*
X91020238Y-92409819D01*
X91305952Y-92409819D02*
X91305952Y-91409819D01*
X91305952Y-91409819D02*
X91210714Y-91552676D01*
X91210714Y-91552676D02*
X91115476Y-91647914D01*
X91115476Y-91647914D02*
X91020238Y-91695533D01*
X133715476Y-69344819D02*
X133715476Y-68344819D01*
X133715476Y-68344819D02*
X134048809Y-69059104D01*
X134048809Y-69059104D02*
X134382142Y-68344819D01*
X134382142Y-68344819D02*
X134382142Y-69344819D01*
X134810714Y-68440057D02*
X134858333Y-68392438D01*
X134858333Y-68392438D02*
X134953571Y-68344819D01*
X134953571Y-68344819D02*
X135191666Y-68344819D01*
X135191666Y-68344819D02*
X135286904Y-68392438D01*
X135286904Y-68392438D02*
X135334523Y-68440057D01*
X135334523Y-68440057D02*
X135382142Y-68535295D01*
X135382142Y-68535295D02*
X135382142Y-68630533D01*
X135382142Y-68630533D02*
X135334523Y-68773390D01*
X135334523Y-68773390D02*
X134763095Y-69344819D01*
X134763095Y-69344819D02*
X135382142Y-69344819D01*
X162488333Y-78904819D02*
X162155000Y-78428628D01*
X161916905Y-78904819D02*
X161916905Y-77904819D01*
X161916905Y-77904819D02*
X162297857Y-77904819D01*
X162297857Y-77904819D02*
X162393095Y-77952438D01*
X162393095Y-77952438D02*
X162440714Y-78000057D01*
X162440714Y-78000057D02*
X162488333Y-78095295D01*
X162488333Y-78095295D02*
X162488333Y-78238152D01*
X162488333Y-78238152D02*
X162440714Y-78333390D01*
X162440714Y-78333390D02*
X162393095Y-78381009D01*
X162393095Y-78381009D02*
X162297857Y-78428628D01*
X162297857Y-78428628D02*
X161916905Y-78428628D01*
X163345476Y-78238152D02*
X163345476Y-78904819D01*
X163107381Y-77857200D02*
X162869286Y-78571485D01*
X162869286Y-78571485D02*
X163488333Y-78571485D01*
X162488333Y-77154819D02*
X162155000Y-76678628D01*
X161916905Y-77154819D02*
X161916905Y-76154819D01*
X161916905Y-76154819D02*
X162297857Y-76154819D01*
X162297857Y-76154819D02*
X162393095Y-76202438D01*
X162393095Y-76202438D02*
X162440714Y-76250057D01*
X162440714Y-76250057D02*
X162488333Y-76345295D01*
X162488333Y-76345295D02*
X162488333Y-76488152D01*
X162488333Y-76488152D02*
X162440714Y-76583390D01*
X162440714Y-76583390D02*
X162393095Y-76631009D01*
X162393095Y-76631009D02*
X162297857Y-76678628D01*
X162297857Y-76678628D02*
X161916905Y-76678628D01*
X162821667Y-76154819D02*
X163440714Y-76154819D01*
X163440714Y-76154819D02*
X163107381Y-76535771D01*
X163107381Y-76535771D02*
X163250238Y-76535771D01*
X163250238Y-76535771D02*
X163345476Y-76583390D01*
X163345476Y-76583390D02*
X163393095Y-76631009D01*
X163393095Y-76631009D02*
X163440714Y-76726247D01*
X163440714Y-76726247D02*
X163440714Y-76964342D01*
X163440714Y-76964342D02*
X163393095Y-77059580D01*
X163393095Y-77059580D02*
X163345476Y-77107200D01*
X163345476Y-77107200D02*
X163250238Y-77154819D01*
X163250238Y-77154819D02*
X162964524Y-77154819D01*
X162964524Y-77154819D02*
X162869286Y-77107200D01*
X162869286Y-77107200D02*
X162821667Y-77059580D01*
X132553095Y-54014819D02*
X132553095Y-54824342D01*
X132553095Y-54824342D02*
X132600714Y-54919580D01*
X132600714Y-54919580D02*
X132648333Y-54967200D01*
X132648333Y-54967200D02*
X132743571Y-55014819D01*
X132743571Y-55014819D02*
X132934047Y-55014819D01*
X132934047Y-55014819D02*
X133029285Y-54967200D01*
X133029285Y-54967200D02*
X133076904Y-54919580D01*
X133076904Y-54919580D02*
X133124523Y-54824342D01*
X133124523Y-54824342D02*
X133124523Y-54014819D01*
X133553095Y-54110057D02*
X133600714Y-54062438D01*
X133600714Y-54062438D02*
X133695952Y-54014819D01*
X133695952Y-54014819D02*
X133934047Y-54014819D01*
X133934047Y-54014819D02*
X134029285Y-54062438D01*
X134029285Y-54062438D02*
X134076904Y-54110057D01*
X134076904Y-54110057D02*
X134124523Y-54205295D01*
X134124523Y-54205295D02*
X134124523Y-54300533D01*
X134124523Y-54300533D02*
X134076904Y-54443390D01*
X134076904Y-54443390D02*
X133505476Y-55014819D01*
X133505476Y-55014819D02*
X134124523Y-55014819D01*
X124148095Y-54299819D02*
X124148095Y-55109342D01*
X124148095Y-55109342D02*
X124195714Y-55204580D01*
X124195714Y-55204580D02*
X124243333Y-55252200D01*
X124243333Y-55252200D02*
X124338571Y-55299819D01*
X124338571Y-55299819D02*
X124529047Y-55299819D01*
X124529047Y-55299819D02*
X124624285Y-55252200D01*
X124624285Y-55252200D02*
X124671904Y-55204580D01*
X124671904Y-55204580D02*
X124719523Y-55109342D01*
X124719523Y-55109342D02*
X124719523Y-54299819D01*
X125100476Y-54299819D02*
X125719523Y-54299819D01*
X125719523Y-54299819D02*
X125386190Y-54680771D01*
X125386190Y-54680771D02*
X125529047Y-54680771D01*
X125529047Y-54680771D02*
X125624285Y-54728390D01*
X125624285Y-54728390D02*
X125671904Y-54776009D01*
X125671904Y-54776009D02*
X125719523Y-54871247D01*
X125719523Y-54871247D02*
X125719523Y-55109342D01*
X125719523Y-55109342D02*
X125671904Y-55204580D01*
X125671904Y-55204580D02*
X125624285Y-55252200D01*
X125624285Y-55252200D02*
X125529047Y-55299819D01*
X125529047Y-55299819D02*
X125243333Y-55299819D01*
X125243333Y-55299819D02*
X125148095Y-55252200D01*
X125148095Y-55252200D02*
X125100476Y-55204580D01*
X133715476Y-81644819D02*
X133715476Y-80644819D01*
X133715476Y-80644819D02*
X134048809Y-81359104D01*
X134048809Y-81359104D02*
X134382142Y-80644819D01*
X134382142Y-80644819D02*
X134382142Y-81644819D01*
X135286904Y-80978152D02*
X135286904Y-81644819D01*
X135048809Y-80597200D02*
X134810714Y-81311485D01*
X134810714Y-81311485D02*
X135429761Y-81311485D01*
X133715476Y-75494819D02*
X133715476Y-74494819D01*
X133715476Y-74494819D02*
X134048809Y-75209104D01*
X134048809Y-75209104D02*
X134382142Y-74494819D01*
X134382142Y-74494819D02*
X134382142Y-75494819D01*
X134763095Y-74494819D02*
X135382142Y-74494819D01*
X135382142Y-74494819D02*
X135048809Y-74875771D01*
X135048809Y-74875771D02*
X135191666Y-74875771D01*
X135191666Y-74875771D02*
X135286904Y-74923390D01*
X135286904Y-74923390D02*
X135334523Y-74971009D01*
X135334523Y-74971009D02*
X135382142Y-75066247D01*
X135382142Y-75066247D02*
X135382142Y-75304342D01*
X135382142Y-75304342D02*
X135334523Y-75399580D01*
X135334523Y-75399580D02*
X135286904Y-75447200D01*
X135286904Y-75447200D02*
X135191666Y-75494819D01*
X135191666Y-75494819D02*
X134905952Y-75494819D01*
X134905952Y-75494819D02*
X134810714Y-75447200D01*
X134810714Y-75447200D02*
X134763095Y-75399580D01*
X133215476Y-62144819D02*
X133215476Y-61144819D01*
X133215476Y-61144819D02*
X133548809Y-61859104D01*
X133548809Y-61859104D02*
X133882142Y-61144819D01*
X133882142Y-61144819D02*
X133882142Y-62144819D01*
X134882142Y-62144819D02*
X134310714Y-62144819D01*
X134596428Y-62144819D02*
X134596428Y-61144819D01*
X134596428Y-61144819D02*
X134501190Y-61287676D01*
X134501190Y-61287676D02*
X134405952Y-61382914D01*
X134405952Y-61382914D02*
X134310714Y-61430533D01*
D11*
X15435000Y-80565000D02*
X16435000Y-80565000D01*
X15935000Y-61895000D02*
X15935000Y-60895000D01*
X16435000Y-61395000D02*
X15435000Y-61395000D01*
X16970000Y-51110000D02*
X94030000Y-51110000D01*
X16970000Y-90890000D02*
X16970000Y-51110000D01*
X94030000Y-51110000D02*
X94030000Y-90890000D01*
X94030000Y-90890000D02*
X16970000Y-90890000D01*
X94565000Y-80605000D02*
X95565000Y-80605000D01*
X95065000Y-80105000D02*
X95065000Y-81105000D01*
X95565000Y-61435000D02*
X94565000Y-61435000D01*
X131600000Y-71475000D02*
X135600000Y-71475000D01*
X131600000Y-74675000D02*
X131600000Y-71475000D01*
X135600000Y-70775000D02*
X138180000Y-70775000D01*
X135600000Y-71475000D02*
X135600000Y-70775000D01*
X135600000Y-74675000D02*
X131600000Y-74675000D01*
X135600000Y-75375000D02*
X135600000Y-74675000D01*
X138180000Y-75375000D02*
X135600000Y-75375000D01*
X141820000Y-70775000D02*
X144300000Y-70775000D01*
X144300000Y-70775000D02*
X144300000Y-75375000D01*
X144300000Y-75375000D02*
X141820000Y-75375000D01*
X144957000Y-71757000D02*
X145457000Y-71757000D01*
X144957000Y-74170000D02*
X145457000Y-74170000D01*
X145207000Y-73920000D02*
X145207000Y-74420000D01*
D12*
X130885000Y-55660000D02*
X133115000Y-55660000D01*
X130885000Y-57760000D02*
X130885000Y-55660000D01*
X131145000Y-55910000D02*
X145385000Y-55910000D01*
X131145000Y-62150000D02*
X131145000Y-55910000D01*
X145385000Y-55910000D02*
X145385000Y-62150000D01*
X145385000Y-62150000D02*
X131145000Y-62150000D01*
X122260000Y-55845000D02*
X122260000Y-91525000D01*
X122260000Y-91525000D02*
X127560000Y-91525000D01*
X123910000Y-55845000D02*
X122260000Y-55845000D01*
X127560000Y-55845000D02*
X125910000Y-55845000D01*
X127560000Y-91525000D02*
X127560000Y-55845000D01*
X125910000Y-55845000D02*
G75*
G02*
X123910000Y-55845000I-1000000J0D01*
G01*
D11*
X131600000Y-83775000D02*
X135600000Y-83775000D01*
X131600000Y-86975000D02*
X131600000Y-83775000D01*
X135600000Y-83075000D02*
X138180000Y-83075000D01*
X135600000Y-83775000D02*
X135600000Y-83075000D01*
X135600000Y-86975000D02*
X131600000Y-86975000D01*
X135600000Y-87675000D02*
X135600000Y-86975000D01*
X138180000Y-87675000D02*
X135600000Y-87675000D01*
X141820000Y-83075000D02*
X144300000Y-83075000D01*
X144300000Y-83075000D02*
X144300000Y-87675000D01*
X144300000Y-87675000D02*
X141820000Y-87675000D01*
X144957000Y-84057000D02*
X145457000Y-84057000D01*
X144957000Y-86470000D02*
X145457000Y-86470000D01*
X145207000Y-86220000D02*
X145207000Y-86720000D01*
X131600000Y-77625000D02*
X135600000Y-77625000D01*
X131600000Y-80825000D02*
X131600000Y-77625000D01*
X135600000Y-76925000D02*
X138180000Y-76925000D01*
X135600000Y-77625000D02*
X135600000Y-76925000D01*
X135600000Y-80825000D02*
X131600000Y-80825000D01*
X135600000Y-81525000D02*
X135600000Y-80825000D01*
X138180000Y-81525000D02*
X135600000Y-81525000D01*
X141820000Y-76925000D02*
X144300000Y-76925000D01*
X144300000Y-76925000D02*
X144300000Y-81525000D01*
X144300000Y-81525000D02*
X141820000Y-81525000D01*
X144957000Y-77907000D02*
X145457000Y-77907000D01*
X144957000Y-80320000D02*
X145457000Y-80320000D01*
X145207000Y-80070000D02*
X145207000Y-80570000D01*
X131100000Y-64275000D02*
X135100000Y-64275000D01*
X131100000Y-67475000D02*
X131100000Y-64275000D01*
X135100000Y-63575000D02*
X137680000Y-63575000D01*
X135100000Y-64275000D02*
X135100000Y-63575000D01*
X135100000Y-67475000D02*
X131100000Y-67475000D01*
X135100000Y-68175000D02*
X135100000Y-67475000D01*
X137680000Y-68175000D02*
X135100000Y-68175000D01*
X141320000Y-63575000D02*
X143800000Y-63575000D01*
X143800000Y-63575000D02*
X143800000Y-68175000D01*
X143800000Y-68175000D02*
X141320000Y-68175000D01*
X144457000Y-64557000D02*
X144957000Y-64557000D01*
X144457000Y-66970000D02*
X144957000Y-66970000D01*
X144707000Y-66720000D02*
X144707000Y-67220000D01*
M02*
